<?xml version="1.0" encoding="UTF-8"?>
<svg version="1.1" xmlns="http://www.w3.org/2000/svg" width="64" height="64">
<path d="M0 0 C0.79273315 0.00718552 1.58546631 0.01437103 2.40222168 0.02177429 C3.2159021 0.02223251 4.02958252 0.02269073 4.86791992 0.02316284 C6.58949236 0.02618593 8.31106204 0.03407394 10.03259277 0.0464325 C12.6728277 0.06466952 15.31271164 0.06694233 17.95300293 0.06669617 C19.62357889 0.0716121 21.29415246 0.07744075 22.96472168 0.08427429 C24.15382141 0.08594353 24.15382141 0.08594353 25.36694336 0.08764648 C30.95133514 0.13617477 30.95133514 0.13617477 33.18347168 1.25224304 C33.18347168 16.43224304 33.18347168 31.61224304 33.18347168 47.25224304 C19.98347168 47.25224304 6.78347168 47.25224304 -6.81652832 47.25224304 C-7.96254326 44.96021316 -7.94890071 43.65767614 -7.96179199 41.10966492 C-7.96817184 40.25537903 -7.9745517 39.40109314 -7.98112488 38.5209198 C-7.9822377 37.59694397 -7.98335052 36.67296814 -7.98449707 35.72099304 C-7.98782547 34.77413635 -7.99115387 33.82727966 -7.99458313 32.85173035 C-7.99965078 30.84770698 -8.00199151 28.84367516 -8.00183105 26.83964539 C-8.00401939 23.76479801 -8.02218186 20.69030823 -8.0411377 17.61552429 C-8.04407121 15.67151511 -8.04605629 13.72750421 -8.04699707 11.78349304 C-8.05418259 10.85951721 -8.0613681 9.93554138 -8.06877136 8.98356628 C-8.06569473 8.1292804 -8.0626181 7.27499451 -8.05944824 6.39482117 C-8.06087326 5.64140442 -8.06229828 4.88798767 -8.06376648 4.11174011 C-7.44039698 -0.57666946 -3.87628537 0.01624424 0 0 Z M-2.81652832 5.25224304 C-2.81652832 17.46224304 -2.81652832 29.67224304 -2.81652832 42.25224304 C7.41347168 42.25224304 17.64347168 42.25224304 28.18347168 42.25224304 C28.18347168 30.04224304 28.18347168 17.83224304 28.18347168 5.25224304 C17.95347168 5.25224304 7.72347168 5.25224304 -2.81652832 5.25224304 Z " fill="#8874FF" transform="translate(21.8165283203125,10.747756958007813)"/>
<path d="M0 0 C0.79273315 0.00718552 1.58546631 0.01437103 2.40222168 0.02177429 C3.2159021 0.02223251 4.02958252 0.02269073 4.86791992 0.02316284 C6.58949236 0.02618593 8.31106204 0.03407394 10.03259277 0.0464325 C12.6728277 0.06466952 15.31271164 0.06694233 17.95300293 0.06669617 C19.62357889 0.0716121 21.29415246 0.07744075 22.96472168 0.08427429 C24.15382141 0.08594353 24.15382141 0.08594353 25.36694336 0.08764648 C30.95133514 0.13617477 30.95133514 0.13617477 33.18347168 1.25224304 C33.18347168 2.57224304 33.18347168 3.89224304 33.18347168 5.25224304 C21.30347168 5.25224304 9.42347168 5.25224304 -2.81652832 5.25224304 C-2.81652832 19.11224304 -2.81652832 32.97224304 -2.81652832 47.25224304 C-4.13652832 47.25224304 -5.45652832 47.25224304 -6.81652832 47.25224304 C-7.96254326 44.96021316 -7.94890071 43.65767614 -7.96179199 41.10966492 C-7.96817184 40.25537903 -7.9745517 39.40109314 -7.98112488 38.5209198 C-7.9822377 37.59694397 -7.98335052 36.67296814 -7.98449707 35.72099304 C-7.98782547 34.77413635 -7.99115387 33.82727966 -7.99458313 32.85173035 C-7.99965078 30.84770698 -8.00199151 28.84367516 -8.00183105 26.83964539 C-8.00401939 23.76479801 -8.02218186 20.69030823 -8.0411377 17.61552429 C-8.04407121 15.67151511 -8.04605629 13.72750421 -8.04699707 11.78349304 C-8.05418259 10.85951721 -8.0613681 9.93554138 -8.06877136 8.98356628 C-8.06569473 8.1292804 -8.0626181 7.27499451 -8.05944824 6.39482117 C-8.06087326 5.64140442 -8.06229828 4.88798767 -8.06376648 4.11174011 C-7.44039698 -0.57666946 -3.87628537 0.01624424 0 0 Z " fill="#8778FF" transform="translate(15.8165283203125,4.7477569580078125)"/>
</svg>
