<?xml version="1.0" encoding="utf-8"?>
<svg xmlns="http://www.w3.org/2000/svg" xmlns:xlink="http://www.w3.org/1999/xlink" style="margin: auto; background: none; display: block; shape-rendering: auto;" width="337px" height="337px" viewBox="0 0 100 100" preserveAspectRatio="xMidYMid">
<g transform="rotate(0 50 50)">
  <rect x="47" y="10.5" rx="3" ry="8.5" width="6" height="17" fill="#ed28ed">
    <animate attributeName="opacity" values="1;0" keyTimes="0;1" dur="1.5384615384615383s" begin="-1.45748987854251s" repeatCount="indefinite"></animate>
  </rect>
</g><g transform="rotate(18.94736842105263 50 50)">
  <rect x="47" y="10.5" rx="3" ry="8.5" width="6" height="17" fill="#ed28ed">
    <animate attributeName="opacity" values="1;0" keyTimes="0;1" dur="1.5384615384615383s" begin="-1.376518218623482s" repeatCount="indefinite"></animate>
  </rect>
</g><g transform="rotate(37.89473684210526 50 50)">
  <rect x="47" y="10.5" rx="3" ry="8.5" width="6" height="17" fill="#ed28ed">
    <animate attributeName="opacity" values="1;0" keyTimes="0;1" dur="1.5384615384615383s" begin="-1.2955465587044535s" repeatCount="indefinite"></animate>
  </rect>
</g><g transform="rotate(56.8421052631579 50 50)">
  <rect x="47" y="10.5" rx="3" ry="8.5" width="6" height="17" fill="#ed28ed">
    <animate attributeName="opacity" values="1;0" keyTimes="0;1" dur="1.5384615384615383s" begin="-1.2145748987854252s" repeatCount="indefinite"></animate>
  </rect>
</g><g transform="rotate(75.78947368421052 50 50)">
  <rect x="47" y="10.5" rx="3" ry="8.5" width="6" height="17" fill="#ed28ed">
    <animate attributeName="opacity" values="1;0" keyTimes="0;1" dur="1.5384615384615383s" begin="-1.1336032388663968s" repeatCount="indefinite"></animate>
  </rect>
</g><g transform="rotate(94.73684210526316 50 50)">
  <rect x="47" y="10.5" rx="3" ry="8.5" width="6" height="17" fill="#ed28ed">
    <animate attributeName="opacity" values="1;0" keyTimes="0;1" dur="1.5384615384615383s" begin="-1.0526315789473684s" repeatCount="indefinite"></animate>
  </rect>
</g><g transform="rotate(113.6842105263158 50 50)">
  <rect x="47" y="10.5" rx="3" ry="8.5" width="6" height="17" fill="#ed28ed">
    <animate attributeName="opacity" values="1;0" keyTimes="0;1" dur="1.5384615384615383s" begin="-0.9716599190283401s" repeatCount="indefinite"></animate>
  </rect>
</g><g transform="rotate(132.6315789473684 50 50)">
  <rect x="47" y="10.5" rx="3" ry="8.5" width="6" height="17" fill="#ed28ed">
    <animate attributeName="opacity" values="1;0" keyTimes="0;1" dur="1.5384615384615383s" begin="-0.8906882591093118s" repeatCount="indefinite"></animate>
  </rect>
</g><g transform="rotate(151.57894736842104 50 50)">
  <rect x="47" y="10.5" rx="3" ry="8.5" width="6" height="17" fill="#ed28ed">
    <animate attributeName="opacity" values="1;0" keyTimes="0;1" dur="1.5384615384615383s" begin="-0.8097165991902834s" repeatCount="indefinite"></animate>
  </rect>
</g><g transform="rotate(170.52631578947367 50 50)">
  <rect x="47" y="10.5" rx="3" ry="8.5" width="6" height="17" fill="#ed28ed">
    <animate attributeName="opacity" values="1;0" keyTimes="0;1" dur="1.5384615384615383s" begin="-0.728744939271255s" repeatCount="indefinite"></animate>
  </rect>
</g><g transform="rotate(189.47368421052633 50 50)">
  <rect x="47" y="10.5" rx="3" ry="8.5" width="6" height="17" fill="#ed28ed">
    <animate attributeName="opacity" values="1;0" keyTimes="0;1" dur="1.5384615384615383s" begin="-0.6477732793522267s" repeatCount="indefinite"></animate>
  </rect>
</g><g transform="rotate(208.42105263157896 50 50)">
  <rect x="47" y="10.5" rx="3" ry="8.5" width="6" height="17" fill="#ed28ed">
    <animate attributeName="opacity" values="1;0" keyTimes="0;1" dur="1.5384615384615383s" begin="-0.5668016194331984s" repeatCount="indefinite"></animate>
  </rect>
</g><g transform="rotate(227.3684210526316 50 50)">
  <rect x="47" y="10.5" rx="3" ry="8.5" width="6" height="17" fill="#ed28ed">
    <animate attributeName="opacity" values="1;0" keyTimes="0;1" dur="1.5384615384615383s" begin="-0.4858299595141701s" repeatCount="indefinite"></animate>
  </rect>
</g><g transform="rotate(246.31578947368422 50 50)">
  <rect x="47" y="10.5" rx="3" ry="8.5" width="6" height="17" fill="#ed28ed">
    <animate attributeName="opacity" values="1;0" keyTimes="0;1" dur="1.5384615384615383s" begin="-0.4048582995951417s" repeatCount="indefinite"></animate>
  </rect>
</g><g transform="rotate(265.2631578947368 50 50)">
  <rect x="47" y="10.5" rx="3" ry="8.5" width="6" height="17" fill="#ed28ed">
    <animate attributeName="opacity" values="1;0" keyTimes="0;1" dur="1.5384615384615383s" begin="-0.32388663967611336s" repeatCount="indefinite"></animate>
  </rect>
</g><g transform="rotate(284.2105263157895 50 50)">
  <rect x="47" y="10.5" rx="3" ry="8.5" width="6" height="17" fill="#ed28ed">
    <animate attributeName="opacity" values="1;0" keyTimes="0;1" dur="1.5384615384615383s" begin="-0.24291497975708504s" repeatCount="indefinite"></animate>
  </rect>
</g><g transform="rotate(303.1578947368421 50 50)">
  <rect x="47" y="10.5" rx="3" ry="8.5" width="6" height="17" fill="#ed28ed">
    <animate attributeName="opacity" values="1;0" keyTimes="0;1" dur="1.5384615384615383s" begin="-0.16194331983805668s" repeatCount="indefinite"></animate>
  </rect>
</g><g transform="rotate(322.10526315789474 50 50)">
  <rect x="47" y="10.5" rx="3" ry="8.5" width="6" height="17" fill="#ed28ed">
    <animate attributeName="opacity" values="1;0" keyTimes="0;1" dur="1.5384615384615383s" begin="-0.08097165991902834s" repeatCount="indefinite"></animate>
  </rect>
</g><g transform="rotate(341.05263157894734 50 50)">
  <rect x="47" y="10.5" rx="3" ry="8.5" width="6" height="17" fill="#ed28ed">
    <animate attributeName="opacity" values="1;0" keyTimes="0;1" dur="1.5384615384615383s" begin="0s" repeatCount="indefinite"></animate>
  </rect>
</g>
<!-- [ldio] generated by https://loading.io/ --></svg>